<?xml version="1.0" standalone="no"?>
<!DOCTYPE svg PUBLIC "-//W3C//DTD SVG 20010904//EN"
 "http://www.w3.org/TR/2001/REC-SVG-20010904/DTD/svg10.dtd">
<svg version="1.0" xmlns="http://www.w3.org/2000/svg"
 width="214.000000pt" height="165.000000pt" viewBox="0 0 214.000000 165.000000"
 preserveAspectRatio="xMidYMid meet">
<metadata>
Created by potrace 1.15, written by Peter Selinger 2001-2017
</metadata>
<g transform="translate(0.000000,165.000000) scale(0.100000,-0.100000)"
fill="#000000" stroke="none">
<path d="M712 1165 c0 -19 -3 -57 -7 -85 l-7 -51 118 3 119 3 -5 45 c-2 25 -4
62 -4 83 l0 37 -107 0 -107 0 0 -35z"/>
<path d="M675 854 c-3 -27 -8 -59 -11 -71 l-4 -23 156 0 157 0 -7 62 c-4 35
-8 64 -9 64 -1 1 -64 5 -139 9 l-136 7 -7 -48z"/>
<path d="M230 721 c-72 -22 -140 -82 -178 -158 -72 -140 -70 -374 3 -499 54
-92 170 -82 230 20 24 41 45 138 45 209 0 28 4 37 18 37 29 0 115 46 144 76
35 38 48 74 48 137 0 112 -96 188 -235 186 -27 0 -61 -4 -75 -8z m169 -107
c53 -31 66 -92 29 -139 -19 -25 -85 -61 -94 -53 -2 2 3 28 11 58 16 60 7 90
-26 90 -50 0 -89 -53 -89 -121 0 -26 -3 -30 -17 -24 -10 4 -28 10 -41 13 -22
4 -23 2 -20 -34 2 -32 9 -43 41 -63 35 -23 37 -27 37 -76 0 -100 -44 -192 -81
-169 -42 26 -63 233 -35 344 35 136 106 205 203 196 29 -2 66 -12 82 -22z"/>
<path d="M1232 686 c-29 -33 -67 -120 -79 -178 -5 -23 -11 -28 -37 -28 -55 0
-77 -11 -74 -34 2 -12 12 -22 23 -24 65 -9 65 -10 65 -60 0 -42 -3 -50 -29
-65 -34 -20 -70 -22 -73 -4 -1 6 -2 39 -2 72 -1 60 -1 60 -32 63 -25 2 -37 -4
-63 -33 l-31 -36 0 36 c0 32 -2 35 -30 35 -33 0 -44 -15 -55 -73 l-7 -37 -45
41 c-24 22 -60 47 -78 55 -75 31 -181 7 -218 -49 -50 -77 -43 -204 14 -252 96
-80 233 31 216 176 l-6 52 22 -19 c78 -65 77 -63 77 -139 0 -76 9 -95 47 -95
26 0 38 21 73 122 23 66 40 87 40 49 0 -10 9 -30 21 -45 25 -32 77 -35 131 -8
l36 19 6 -40 c4 -24 18 -50 36 -68 39 -39 81 -38 163 5 l64 34 14 -31 c10 -24
22 -33 43 -35 34 -4 78 13 102 39 17 19 18 18 35 -11 23 -38 52 -39 129 -4
l57 26 26 -26 c23 -23 35 -26 90 -26 70 0 159 26 207 60 25 18 30 29 30 61 0
21 -4 39 -8 39 -5 0 -34 -14 -65 -31 l-57 -31 0 29 c0 15 -5 45 -11 67 -9 33
-8 41 9 60 30 33 34 44 22 66 -8 14 -21 20 -45 20 -31 0 -40 -7 -83 -62 -77
-102 -175 -188 -214 -188 -23 0 -23 25 -2 138 8 46 13 90 10 98 -8 21 -73 18
-84 -3 -5 -10 -17 -59 -27 -110 -11 -61 -24 -98 -36 -109 -35 -31 -41 -6 -24
97 21 133 21 139 -13 139 -40 0 -61 -27 -75 -100 -13 -60 -15 -63 -71 -101
-111 -75 -140 -67 -144 40 -2 60 1 77 18 101 19 27 26 29 98 32 75 3 77 4 77
28 0 23 -4 25 -52 28 -29 2 -53 4 -53 5 0 1 11 24 25 51 69 135 -14 273 -103
172z"/>
<path d="M640 596 c0 -13 -3 -31 -6 -39 -9 -24 92 -40 221 -35 127 6 145 11
145 43 0 55 2 55 -186 55 l-174 0 0 -24z"/>
</g>
</svg>
